<?xml version="1.0" encoding="utf-8"?>
<!-- Generator: Adobe Illustrator 23.0.2, SVG Export Plug-In . SVG Version: 6.00 Build 0)  -->
<svg version="1.1" id="Ebene_1" xmlns="http://www.w3.org/2000/svg" xmlns:xlink="http://www.w3.org/1999/xlink" x="0px" y="0px"
	 viewBox="0 0 256 256" style="enable-background:new 0 0 256 256;" xml:space="preserve">
<path d="M234,56.2c-7.8-11.6-20.7-24.8-33.7-33.4c-26.9-18.5-58.2-25-85.8-22.1c-28.8,3.1-53.4,14-73.7,32
	C22.1,49.5,9.7,70,4.3,89.5c-5.5,19.6-4.8,37.7-2.8,51.3c2.1,13.8,9,31.2,9,31.2c1.4,3.3,3.4,4.7,4.4,5.3c5,2.8,13.3,0.3,19.6-6.8
	c0.3-0.4,0.5-1,0.3-1.6c-1.8-6.8-2.4-11.9-3-15.9c-1.4-7.9-2.1-21-1.1-33.2c0.5-6.6,1.8-13.6,4-21c4.3-14.6,13.5-29.8,27.7-42.5
	c15.4-13.6,35.1-22,53.8-24.2c6.6-0.8,19.1-1.5,34.1,2.2c3.2,0.8,17,4.4,31.7,14.4c10.7,7.3,19.4,16.3,25.3,25.2
	c6.1,8.5,12.6,22.8,14.6,33.3c2.7,11.9,2.7,24.6,0.8,36.9c-2.4,12.4-6.7,24.4-13.5,34.9c-4.6,8.2-14.3,19-25.6,27.1
	c-10.3,7.2-22,12.4-34,15.3c-6.1,1.4-12.2,2.4-18.4,2.6c-5.6,0.2-12.9,0-18.1-0.9c-7.7-1.2-9.3-3.2-11.1-5.9c0,0-1.2-1.9-1.6-7.1
	c0.1-47,0.1-34.4,0.1-58.8c0-6.9-0.2-13.1-0.2-18.8c0.3-9.3,1.1-15.7,7.8-22.6c4.8-5.1,11.5-8.2,19-8.2c2.3,0,10,0.1,16.8,5.8
	c7.3,6.1,8.5,14.4,8.8,16.7c1.7,13-7,22.8-10.3,25.2c-4.1,3.1-7.8,4.6-10.3,5.4c-5.3,1.8-11.1,2.3-16.3,1.9
	c-0.8-0.1-1.5,0.5-1.7,1.3l-1.8,9.1c-1.7,6.9,2.1,9.5,4.4,10.4c7.2,2.2,13.5,3.1,21,2.6c11.5-0.8,22.9-5.4,32.6-14.4
	c8.2-7.8,12.9-17.4,14.5-28.2c1.6-12-0.5-24.8-5.9-35.7c-6-12-16.3-22.1-30-27.6c-13.8-5.4-24.7-5.6-38.8-2l-0.2,0.1
	c-9.2,3.2-17,7.1-25.2,15.5c-5.6,5.8-10.2,12.9-13,20.8c-2.8,8-3.5,14-3.6,23.3c-0.2,6.9,0.2,13.3,0.2,19.3v39.5
	c0,12.6-0.4,14.8,0,21.3c0.2,4.3,0.8,9.2,2.7,14.4c1.9,5.8,6,11.7,8.8,14.4c3.9,4.2,8.9,7.5,13.8,9.6c11.2,5,26.4,5.8,38.8,5.3
	c8.2-0.3,16.4-1.4,24.4-3.4c16.1-3.8,31.6-10.8,45.2-20.5c14.6-10.3,27.3-24.3,34.3-36.2c9-14.1,14.8-30,17.8-46.3
	c2.7-16.3,2.6-33.1-1.1-49.2c-2.9-14.9-10.6-31.3-19.4-44.5L234,56.2L234,56.2z"/>
</svg>
